{
	"asset":{
		"version":"2.0",
		"generator":""
	},
	"scenes":[{
		"nodes":[0]
	}],
	"nodes":[{
		"name":"Plane",
		"mesh":0,
		"translation":[0.0,
		0.0,
		0.0],
		"rotation":[-0.7071067690849304,
		0.0,
		0.0,
		-0.7071067690849304],
		"scale":[1.0,
		1.0,
		1.0]
	}],
	"meshes":[{
		"name":"Plane",
		"primitives":[{
			"attributes":{
				"POSITION":1,
				"NORMAL":2,
				"TEXCOORD_0":3
			},
			"indices":0
		}]
	}],
	"accessors":[{
		"bufferView":0,
		"type":"SCALAR",
		"componentType":5123,
		"count":138,
		"byteOffset":0,
		"min":[0],
		"max":[137]
	},
	{
		"bufferView":1,
		"type":"VEC3",
		"componentType":5126,
		"count":138,
		"byteOffset":0,
		"min":[-0.7666079998016357,
		0.0,
		-0.10472965985536576],
		"max":[0.7666079998016357,
		0.0,
		0.10472965985536576]
	},
	{
		"bufferView":1,
		"type":"VEC3",
		"componentType":5126,
		"count":138,
		"byteOffset":12,
		"min":[0.0,
		1.0,
		0.0],
		"max":[0.0,
		1.0,
		0.0]
	},
	{
		"bufferView":1,
		"type":"VEC2",
		"componentType":5126,
		"count":138,
		"byteOffset":24,
		"min":[0.04836319014430046,
		0.43603473901748659],
		"max":[0.95345139503479,
		0.5596826076507568]
	}],
	"bufferViews":[{
		"buffer":0,
		"byteOffset":0,
		"byteLength":276,
		"target":34963
	},
	{
		"buffer":0,
		"byteOffset":276,
		"byteLength":4416,
		"target":34962,
		"byteStride":32
	}],
	"buffers":[{
		"uri":"data:application/octet-stream;base64,",
		"byteLength":4692
	}]
}